<?xml version="1.0" encoding="UTF-8" standalone="no"?>
<!-- Created with Inkscape (http://www.inkscape.org/) -->

<svg
   xmlns:dc="http://purl.org/dc/elements/1.1/"
   xmlns:cc="http://creativecommons.org/ns#"
   xmlns:rdf="http://www.w3.org/1999/02/22-rdf-syntax-ns#"
   xmlns:svg="http://www.w3.org/2000/svg"
   xmlns="http://www.w3.org/2000/svg"
   xmlns:sodipodi="http://sodipodi.sourceforge.net/DTD/sodipodi-0.dtd"
   xmlns:inkscape="http://www.inkscape.org/namespaces/inkscape"
   width="744.09448819"
   height="1052.3622047"
   id="svg2"
   version="1.1"
   inkscape:version="0.48.5 r10040"
   sodipodi:docname="server_template.svg">
  <defs
     id="defs4" />
  <sodipodi:namedview
     id="base"
     pagecolor="#ffffff"
     bordercolor="#666666"
     borderopacity="1.0"
     inkscape:pageopacity="0.0"
     inkscape:pageshadow="2"
     inkscape:zoom="1.4"
     inkscape:cx="171.94543"
     inkscape:cy="741.49297"
     inkscape:document-units="px"
     inkscape:current-layer="layer1"
     showgrid="true"
     inkscape:window-width="1280"
     inkscape:window-height="1002"
     inkscape:window-x="0"
     inkscape:window-y="0"
     inkscape:window-maximized="1"
     inkscape:snap-grids="true">
    <inkscape:grid
       type="xygrid"
       id="grid3006" />
  </sodipodi:namedview>
  <metadata
     id="metadata7">
    <rdf:RDF>
      <cc:Work
         rdf:about="">
        <dc:format>image/svg+xml</dc:format>
        <dc:type
           rdf:resource="http://purl.org/dc/dcmitype/StillImage" />
        <dc:title></dc:title>
      </cc:Work>
    </rdf:RDF>
  </metadata>
  <g
     inkscape:label="Layer 1"
     inkscape:groupmode="layer"
     id="layer1">
    <rect
       style="fill:#4d4d4d;stroke:#333333;stroke-width:0.79662752"
       id="rect3008"
       width="165"
       height="40"
       x="100"
       y="92.362183"
       inkscape:export-filename="/home/nikbird/AndroidProjects/DataCenterMonitor/app/src/main/res/drawable/server_fail.png"
       inkscape:export-xdpi="130"
       inkscape:export-ydpi="130" />
    <path
       sodipodi:type="arc"
       style="fill:#ff0000;stroke:none"
       id="path3010"
       sodipodi:cx="317.5"
       sodipodi:cy="184.86218"
       sodipodi:rx="7.5"
       sodipodi:ry="7.5"
       d="m 325,184.86218 a 7.5,7.5 0 1 1 -15,0 7.5,7.5 0 1 1 15,0 z"
       transform="translate(-85,-82.5)"
       inkscape:export-filename="/home/nikbird/AndroidProjects/DataCenterMonitor/app/src/main/res/drawable/server_fail.png"
       inkscape:export-xdpi="130"
       inkscape:export-ydpi="130" />
    <path
       transform="translate(-90,-27.5)"
       d="m 325,184.86218 a 7.5,7.5 0 1 1 -15,0 7.5,7.5 0 1 1 15,0 z"
       sodipodi:ry="7.5"
       sodipodi:rx="7.5"
       sodipodi:cy="184.86218"
       sodipodi:cx="317.5"
       id="path3012"
       style="fill:#00ff00;stroke:none"
       sodipodi:type="arc"
       inkscape:export-filename="/home/nikbird/AndroidProjects/DataCenterMonitor/app/src/main/res/drawable/server_ok.png"
       inkscape:export-xdpi="130"
       inkscape:export-ydpi="130" />
    <path
       sodipodi:type="arc"
       style="fill:#999999;stroke:none"
       id="path3014"
       sodipodi:cx="317.5"
       sodipodi:cy="184.86218"
       sodipodi:rx="7.5"
       sodipodi:ry="7.5"
       d="m 325,184.86218 a 7.5,7.5 0 1 1 -15,0 7.5,7.5 0 1 1 15,0 z"
       transform="translate(-140,-27.5)"
       inkscape:export-filename="/home/nikbird/AndroidProjects/DataCenterMonitor/app/src/main/res/drawable/server_ok.png"
       inkscape:export-xdpi="130"
       inkscape:export-ydpi="130" />
    <path
       transform="translate(-115,-27.5)"
       d="m 325,184.86218 a 7.5,7.5 0 1 1 -15,0 7.5,7.5 0 1 1 15,0 z"
       sodipodi:ry="7.5"
       sodipodi:rx="7.5"
       sodipodi:cy="184.86218"
       sodipodi:cx="317.5"
       id="path3016"
       style="fill:#999999;stroke:none"
       sodipodi:type="arc" />
    <path
       sodipodi:type="arc"
       style="fill:#999999;stroke:none"
       id="path3018"
       sodipodi:cx="317.5"
       sodipodi:cy="184.86218"
       sodipodi:rx="7.5"
       sodipodi:ry="7.5"
       d="m 325,184.86218 a 7.5,7.5 0 1 1 -15,0 7.5,7.5 0 1 1 15,0 z"
       transform="translate(-65,-82.5)"
       inkscape:export-filename="/home/nikbird/AndroidProjects/DataCenterMonitor/app/src/main/res/drawable/server_fail.png"
       inkscape:export-xdpi="130"
       inkscape:export-ydpi="130" />
    <g
       id="g3802"
       transform="translate(-94.285526,-49.920673)"
       inkscape:export-filename="/home/nikbird/AndroidProjects/DataCenterMonitor/app/src/main/res/drawable/server_fail.png"
       inkscape:export-xdpi="130"
       inkscape:export-ydpi="130">
      <path
         transform="translate(-35,-20)"
         d="m 255,182.36218 c 0,5.52285 -4.47715,10 -10,10 -5.52285,0 -10,-4.47715 -10,-10 0,-5.52284 4.47715,-10 10,-10 5.52285,0 10,4.47716 10,10 z"
         sodipodi:ry="10"
         sodipodi:rx="10"
         sodipodi:cy="182.36218"
         sodipodi:cx="245"
         id="path3020"
         style="fill:#b3b3b3;stroke:none"
         sodipodi:type="arc" />
      <path
         transform="matrix(1.3411015,0,0,1.7177583,-122.2013,-123.65245)"
         d="m 251.78053,166.4584 c 0,1.67368 -1.86558,3.03046 -4.16688,3.03046 -2.30131,0 -4.16688,-1.35678 -4.16688,-3.03046 0,-1.67367 1.86557,-3.03045 4.16688,-3.03045 2.3013,0 4.16688,1.35678 4.16688,3.03045 z"
         sodipodi:ry="3.0304577"
         sodipodi:rx="4.1668792"
         sodipodi:cy="166.4584"
         sodipodi:cx="247.61365"
         id="path3790"
         style="fill:none;stroke:#0096eb;stroke-width:1.5;stroke-miterlimit:4;stroke-opacity:1;stroke-dasharray:none"
         sodipodi:type="arc" />
      <path
         inkscape:connector-curvature="0"
         id="path3800"
         d="m 210,162.36218 0,-10"
         style="fill:none;stroke:#0096eb;stroke-width:1px;stroke-linecap:butt;stroke-linejoin:miter;stroke-opacity:1" />
    </g>
    <rect
       style="fill:#194d8b;fill-opacity:1;stroke:#0096eb;stroke-width:1.52189898;stroke-miterlimit:4;stroke-opacity:1;stroke-dasharray:none"
       id="rect3864"
       width="175"
       height="250"
       x="100"
       y="192.36218"
       inkscape:export-filename="/home/nikbird/AndroidProjects/DataCenterMonitor/app/src/main/res/drawable/rack.png"
       inkscape:export-xdpi="130"
       inkscape:export-ydpi="130" />
  </g>
</svg>
